# xmcd
# 
# Track frame offsets:
#     150
#     24755
#     48107
#     69645
#     93897
#     119432
#     142137
#     164735
#     189505
#     210252
#     233782
#     244787
# 
# Disc length: 3659
# 
# Revision: 5
# Processed by: cddbd v1.5.2PL0 Copyright (c) Steve Scherf et al.
# Submitted via: fre:ac v1.0.27
# 
DISCID=9f0e490c
DTITLE=Bill Evans - Push
DYEAR=1994
DGENRE=Jazz Fusion
TTITLE0=Push
TTITLE1=Road To Ruin
TTITLE2=If Only In Your Dreams
TTITLE3=London House
TTITLE4=Night Wing
TTITLE5=Stand Up And Do Something
TTITLE6=The Hobo
TTITLE7=You Gotta Believe
TTITLE8=Life Is Dangerous
TTITLE9=U R What U Hear
TTITLE10=A Simple Life
TTITLE11=Matter Of Time
EXTD=Lipstick Records\nAlex Merck Music, Inc.
EXTT0=
EXTT1=
EXTT2=
EXTT3=
EXTT4=
EXTT5=
EXTT6=
EXTT7=
EXTT8=
EXTT9=
EXTT10=
EXTT11=
PLAYORDER=
